<?xml version="1.0" encoding="UTF-8"?>
<svg version="1.1" xmlns="http://www.w3.org/2000/svg" width="1024" height="1024">
<path d="M0 0 C337.92 0 675.84 0 1024 0 C1024 337.92 1024 675.84 1024 1024 C686.08 1024 348.16 1024 0 1024 C0 686.08 0 348.16 0 0 Z " fill="#000000" transform="translate(0,0)"/>
<path d="M0 0 C0.66483398 0.35175293 1.32966797 0.70350586 2.01464844 1.06591797 C30.44627076 16.20721995 56.50892818 38.3577729 75.69824219 64.25830078 C76.99532734 65.99374817 78.32532522 67.69889576 79.6640625 69.40234375 C117.28563756 117.98951342 132.00094171 182.93083657 125.23046875 243.45800781 C124.64072753 247.67530559 123.88103447 251.83432455 123 256 C122.69400879 257.47364014 122.69400879 257.47364014 122.38183594 258.97705078 C110.52480555 314.6809308 81.53109063 366.7767242 36 402 C35.4229834 402.45342773 34.8459668 402.90685547 34.25146484 403.37402344 C23.98026841 411.42638325 13.30119036 418.47819049 2 425 C1.36239746 425.37108887 0.72479492 425.74217773 0.06787109 426.12451172 C-10.49543273 432.21321913 -21.58859896 436.75136381 -33 441 C-33.73025391 441.27585937 -34.46050781 441.55171875 -35.21289062 441.8359375 C-94.98052976 464.13152957 -163.35985146 460.41459399 -221.375 434.6875 C-245.33187249 423.65536995 -267.19613411 408.92057766 -286.640625 391.13671875 C-288.68167962 389.28828021 -290.76374282 387.51665115 -292.875 385.75 C-334.97376278 348.90299435 -359.92038846 289.79987923 -364.83007812 234.96948242 C-366.67185598 202.78335596 -364.35072174 171.96254183 -355 141 C-354.62367432 139.74727295 -354.62367432 139.74727295 -354.23974609 138.46923828 C-341.29720637 96.44551925 -314.32140258 55.57471015 -279.69140625 28.13671875 C-277.92372497 26.73334915 -276.18017976 25.29892106 -274.46484375 23.83203125 C-201.89631065 -38.00993135 -91.61270788 -45.81780232 0 0 Z " fill="#000000" transform="translate(631,144)"/>
<path d="M0 0 C7.51722755 5.17703834 13.82359844 12.7654455 20.20572662 19.25282288 C22.93588341 22.02539151 25.67567356 24.78835842 28.4148674 27.55199432 C33.50084465 32.68359033 38.58268752 37.81913113 43.6484375 42.97070312 C47.18712576 46.56860159 50.73775189 50.15432259 54.29671478 53.73216248 C55.64887842 55.09609262 56.99648789 56.46455306 58.33945465 57.83753967 C60.20882578 59.74768838 62.0929862 61.64195124 63.98144531 63.53320312 C64.53424164 64.10554688 65.08703796 64.67789063 65.65658569 65.26757812 C67.35016136 67.00186351 67.35016136 67.00186351 70 69 C73.01636716 68.86714839 75.02601258 67.53181456 77.546875 65.92578125 C78.21895996 65.50820557 78.89104492 65.09062988 79.58349609 64.66040039 C80.29844238 64.21559326 81.01338867 63.77078613 81.75 63.3125 C100.51142459 51.96541886 121.55840615 46.60005761 143.4375 46.75 C144.56220703 46.74226563 145.68691406 46.73453125 146.84570312 46.7265625 C170.87338177 46.78176682 193.71331003 54.0436186 213.3984375 67.7265625 C215.82342927 69.28060123 215.82342927 69.28060123 217.82156372 68.44354248 C220.83720676 66.44522429 223.07751516 63.865873 225.45654297 61.17675781 C231.67136268 54.30111564 238.136104 47.71742294 244.6953125 41.171875 C245.86178868 40.00472274 247.02811659 38.83742229 248.19430542 37.66998291 C250.60773993 35.25509215 253.02292831 32.84197403 255.43945312 30.43017578 C258.53860766 27.33678846 261.63315452 24.23883615 264.7264576 21.13959885 C267.11977147 18.74268278 269.51544749 16.34813912 271.91186142 13.95432281 C273.05530057 12.81155026 274.19799868 11.66803574 275.33993912 10.52376556 C276.92360603 8.93757023 278.51042247 7.35459577 280.09814453 5.77246094 C280.99904816 4.87235291 281.89995178 3.97224487 282.82815552 3.04486084 C285.37840607 0.64371862 286.3380714 0.07354762 289.8125 -0.3125 C293.74932188 0.07346293 295.23396679 1.23396679 298 4 C299.03293285 7.09879855 299.12836694 9.2290232 299.13422108 12.47767448 C299.13867892 13.62311788 299.14313676 14.76856128 299.14772969 15.94871509 C299.14745315 17.84483797 299.14745315 17.84483797 299.14717102 19.77926636 C299.15046986 21.13122766 299.15419548 22.48318797 299.1583125 23.83514702 C299.16833793 27.55843361 299.17205015 31.28170408 299.17470181 35.00500226 C299.17860314 39.01735956 299.18818146 43.02970408 299.19691467 47.04205322 C299.21668179 56.73464004 299.22674467 66.4272279 299.23564246 76.11982983 C299.24002412 80.68176637 299.24539117 85.24370174 299.25063133 89.80563736 C299.26764229 104.96542304 299.2821379 120.12520799 299.28938007 135.28500175 C299.29129003 139.21946081 299.29321035 143.15391987 299.29516602 147.08837891 C299.29564976 148.06629249 299.2961335 149.04420608 299.2966319 150.05175342 C299.30493766 165.90414381 299.33028437 181.75645889 299.36274669 197.60881637 C299.39578657 213.87546552 299.41382597 230.14207634 299.41702431 246.40875924 C299.41919204 255.54548128 299.42797919 264.68209341 299.45348549 273.81878281 C299.47515041 281.59746657 299.48326366 289.37601372 299.47351871 297.15472423 C299.468962 301.12499373 299.47093931 305.09498112 299.49028015 309.06521225 C299.50782722 312.69851285 299.50698375 316.33132376 299.49138286 319.96462895 C299.48786049 321.9043739 299.50409592 323.84412349 299.52098733 325.7837981 C299.51240644 326.93445699 299.50382555 328.08511589 299.49498463 329.27064323 C299.49596144 330.26350456 299.49693824 331.25636589 299.49794465 332.27931392 C298.85971294 335.76650495 297.41659614 337.45605548 295 340 C291.73952371 341.63023814 289.62198965 341.4673535 286 341 C284.22973633 339.77217102 284.22973633 339.77217102 282.39453125 338.0949707 C281.69521484 337.45653229 280.99589844 336.81809387 280.27539062 336.16030884 C276.06131727 332.15936948 271.92385007 328.0867312 267.8125 323.98046875 C266.85993377 323.03112332 265.90729572 322.08184994 264.95458984 321.13264465 C262.97626387 319.16025573 260.99996333 317.18586311 259.02490234 315.21020508 C256.49009133 312.67529143 253.94840764 310.14738734 251.40501404 307.62108898 C249.44400847 305.67116336 247.48752558 303.71674895 245.53231812 301.76101112 C244.14153107 300.37197896 242.74620528 298.98749611 241.35083008 297.60307312 C240.51575928 296.76492569 239.68068848 295.92677826 238.8203125 295.06323242 C238.08055176 294.3248967 237.34079102 293.58656097 236.57861328 292.82585144 C235 291 235 291 235 289 C234.34 289 233.68 289 233 289 C231.28615882 287.38188258 229.62819948 285.70426583 228 284 C227.11183594 283.10659912 226.22367188 282.21319824 225.30859375 281.29272461 C224.61262085 280.59191017 224.61262085 280.59191017 223.90258789 279.87693787 C221.81812905 277.77895401 219.73087483 275.68375969 217.64355469 273.58862305 C216.54695603 272.48697469 215.45125364 271.38443345 214.35644531 270.28100586 C212.76085126 268.67322258 211.16199564 267.06874446 209.5625 265.46484375 C209.079021 264.97620346 208.59554199 264.48756317 208.09741211 263.9841156 C203.2456235 258.59018498 203.2456235 258.59018498 196.96484375 255.7578125 C195.96130859 255.93957031 195.96130859 255.93957031 194.9375 256.125 C194.14988281 256.25003906 193.36226562 256.37507813 192.55078125 256.50390625 C190.83825225 256.83697085 189.12729961 257.17823684 187.41796875 257.52734375 C163.17480753 262.17253688 135.63276982 258.50418938 114.89672852 244.59033203 C95.57400383 230.98672995 84.1175275 211.91319229 79 189 C74.82549336 164.67017905 81.23013432 143.67397638 95.25 123.8125 C107.38466314 111.40204906 123.70558997 104.16122938 141.01806641 103.52539062 C158.24778377 103.34457422 173.917064 107.53806089 186.6171875 119.62109375 C187.40351562 120.40613281 188.18984375 121.19117188 189 122 C189.72445312 122.71285156 190.44890625 123.42570312 191.1953125 124.16015625 C201.43725073 134.88887861 206.60978482 148.71325243 206.4375 163.4375 C206.42920166 164.35837402 206.42090332 165.27924805 206.41235352 166.22802734 C206.24048906 173.14297214 205.34440057 178.85864537 202 185 C201.525625 185.92941406 201.05125 186.85882813 200.5625 187.81640625 C195.16372754 197.35510278 186.74624287 204.0033692 176.28515625 207.375 C165.88615115 209.35340763 153.16678894 209.94919575 144 204 C137.50344553 199.35060803 133.25659086 194.27623231 130 187 C129.54625 186.01 129.0925 185.02 128.625 184 C127.62086286 179.18014171 127.69696473 174.59525698 129.94140625 170.125 C132.14116976 167.10486264 133.94433046 166.01689968 137.5 164.9375 C142.23888344 165.02212292 144.39883463 166.39883463 147.6875 169.6875 C148.96364197 171.93594061 149.3695503 173.50057441 149.875 176 C150.59396309 179.24439648 150.95338288 179.95338288 153.4375 182.4375 C158.74291186 185.67250723 163.95579893 185.46026244 170 185 C175.47746027 183.24307878 178.85218062 179.69240157 182 175 C185.42891972 166.89528065 184.96949311 158.67868584 181.75 150.625 C179.96784284 146.54364009 177.78083676 143.45822008 175 140 C175 139.34 175 138.68 175 138 C174.13568359 137.59587891 174.13568359 137.59587891 173.25390625 137.18359375 C170.96541933 135.98184065 169.01873852 134.59133502 166.9375 133.0625 C157.81854679 126.98814843 147.76156082 125.93800387 137 127 C129.24368471 128.61012795 122.33947577 131.21758846 116 136 C115.17628906 136.60972656 114.35257812 137.21945312 113.50390625 137.84765625 C105.53527019 144.69745106 100.85672813 155.68125064 99.79296875 166.01025391 C98.64130347 183.72533374 102.55699493 200.88578944 114.5 214.5 C115.98133769 216.01843296 117.47952042 217.52076309 119 219 C119.51691406 219.54914063 120.03382813 220.09828125 120.56640625 220.6640625 C129.16828889 229.06381213 142.42388821 233.92131739 154 236 C155.7015625 236.3403125 155.7015625 236.3403125 157.4375 236.6875 C179.0058568 238.57946112 200.09562794 233.90391299 217 220 C231.02630786 208.16959161 237.95975371 189.82055832 240 172 C241.42391939 146.47220808 236.94705762 123.08052923 219.48535156 103.28271484 C205.69992219 88.31699734 188.88902878 77.81724678 169 73 C168.31462158 72.82484863 167.62924316 72.64969727 166.9230957 72.46923828 C159.3028333 70.70520851 151.72944678 70.60075886 143.9375 70.625 C143.25058075 70.62587616 142.5636615 70.62675232 141.85592651 70.62765503 C113.61173562 70.7464784 91.06578366 81.21964712 71 101 C70.26910156 101.71800781 69.53820312 102.43601562 68.78515625 103.17578125 C50.34620011 122.56406978 44.06530661 148.58910751 44.71875 174.640625 C45.97662103 204.13770067 58.8845562 229.78803764 79 251 C79.76828125 251.67160156 80.5365625 252.34320313 81.328125 253.03515625 C81.87984375 253.68355469 82.4315625 254.33195313 83 255 C82.45074486 259.68874897 79.13464732 262.15695688 75.875 265.25 C72.34270717 268.64329056 68.91324711 272.04185872 65.7265625 275.765625 C60.41802045 281.92418423 54.52430438 287.5184722 48.73828125 293.22265625 C47.84496094 294.10824219 46.95164062 294.99382812 46.03125 295.90625 C44.83338867 297.08670898 44.83338867 297.08670898 43.61132812 298.29101562 C41.54191283 300.43782117 39.58050523 302.6104867 37.63183594 304.86376953 C34.19149928 308.82766093 30.57581248 312.56931909 26.859375 316.2734375 C26.21051331 316.92325592 25.56165161 317.57307434 24.89312744 318.24258423 C23.53642399 319.59996209 22.17848145 320.95610254 20.81933594 322.31103516 C18.73775892 324.38720931 16.66163395 326.46872963 14.5859375 328.55078125 C13.26073756 329.87532113 11.93522785 331.19955118 10.609375 332.5234375 C9.99060486 333.14423187 9.37183472 333.76502625 8.73431396 334.40463257 C8.15651184 334.97928253 7.57870972 335.5539325 6.98339844 336.14599609 C6.47822693 336.65037201 5.97305542 337.15474792 5.45257568 337.67440796 C2.10376008 340.73047131 -0.42228725 341.30763037 -4.8671875 341.65625 C-7.62027604 340.80914583 -9.14263527 339.34705856 -10.9204073 337.11680901 C-13.30336493 332.44443009 -12.67253293 326.98178597 -12.62145996 321.85997009 C-12.62579064 320.50541226 -12.63230816 319.15085995 -12.64082003 317.79632193 C-12.65780748 314.07957843 -12.6436338 310.3635089 -12.62430525 306.64680088 C-12.60887819 302.63652187 -12.62228006 298.62632545 -12.63204956 294.61604309 C-12.64657842 286.76238164 -12.6343401 278.90897863 -12.61293632 271.05534165 C-12.58893063 261.9115674 -12.5906404 252.76785243 -12.59324223 243.62405366 C-12.59693272 227.31108298 -12.57610354 210.99823412 -12.54199219 194.68530273 C-12.50889519 178.85161256 -12.49473478 163.01805024 -12.50097656 147.18432617 C-12.50773864 129.94594021 -12.50528593 112.70760781 -12.48561716 95.46922976 C-12.48457768 94.55792223 -12.48353819 93.64661471 -12.4824672 92.70769181 C-12.48037629 90.87732473 -12.47826532 89.04695768 -12.47613403 87.21659065 C-12.46923514 80.84089639 -12.46856966 74.46521862 -12.47001648 68.08952141 C-12.4714553 60.32188002 -12.4617814 52.55434295 -12.43807012 44.78673618 C-12.42619998 40.8225856 -12.41909171 36.85858053 -12.42490768 32.89441299 C-12.43007266 29.26682496 -12.42141586 25.63954457 -12.40163308 22.01200921 C-12.39463459 20.07542171 -12.40234975 18.13879838 -12.41055441 16.20221561 C-12.40149777 15.05340681 -12.39244113 13.90459802 -12.38311005 12.72097683 C-12.38153884 11.72974172 -12.37996764 10.73850661 -12.37834883 9.71723408 C-11.92745005 6.47895917 -10.92578523 4.6248599 -9 2 C-5.38751859 -0.40832094 -4.26125032 -0.72360855 0 0 Z " fill="#FD3600" transform="translate(368,187)"/>
<path d="M0 0 C0.95910278 0.0012085 1.91820557 0.00241699 2.90637207 0.00366211 C37.42537909 0.12094235 71.77333713 6.03322781 103.75 19.375 C104.39646484 19.63571289 105.04292969 19.89642578 105.70898438 20.16503906 C136.34776835 32.54137293 163.95626382 50.48323031 187.75 73.375 C188.69045166 74.27460449 188.69045166 74.27460449 189.64990234 75.19238281 C198.84065751 84.02956186 207.24541654 93.06501549 214.75 103.375 C215.23952148 104.04144531 215.72904297 104.70789063 216.23339844 105.39453125 C223.30619976 115.06413154 229.87344557 124.93403231 235.75 135.375 C236.14928711 136.07786133 236.54857422 136.78072266 236.95996094 137.50488281 C270.65789066 197.35093287 277.26886496 268.44357661 259.75 334.375 C245.10129899 386.67086259 212.96263871 436.12965606 169.75 469.375 C168.31720703 470.53322266 168.31720703 470.53322266 166.85546875 471.71484375 C134.92721651 497.13696157 96.20743789 514.15782752 56.21044922 521.88964844 C54.54429212 522.21831685 52.8817788 522.56592478 51.22314453 522.93066406 C35.21546196 526.40816467 19.37654364 526.77615382 3.0625 526.8125 C2.03317352 526.81858276 1.00384705 526.82466553 -0.05667114 526.83093262 C-19.28273411 526.90516821 -38.26590245 525.25341962 -57 520.75 C-58.06524902 520.49694092 -59.13049805 520.24388184 -60.22802734 519.9831543 C-100.05541183 510.17613362 -138.06398908 492.24365448 -169.25 465.375 C-170.33081217 464.47639629 -171.41292015 463.5793496 -172.49609375 462.68359375 C-185.2246929 452.07881948 -197.21278004 440.59519422 -207.25 427.375 C-207.88301025 426.54863037 -207.88301025 426.54863037 -208.52880859 425.70556641 C-235.14204762 390.82413661 -253.03510267 350.47137031 -261.25 307.375 C-261.49556641 306.16312012 -261.49556641 306.16312012 -261.74609375 304.92675781 C-267.47284894 275.61854994 -266.82228795 241.46594347 -260.25 212.375 C-259.92056396 210.8590625 -259.92056396 210.8590625 -259.58447266 209.3125 C-248.95064642 161.14796502 -225.49671736 116.89303435 -191.25 81.375 C-190.63463379 80.73240234 -190.01926758 80.08980469 -189.38525391 79.42773438 C-181.13008105 70.84548141 -172.7371221 62.83183454 -163.13964844 55.76855469 C-161.08215206 54.25121757 -159.04582364 52.70745521 -157.0078125 51.1640625 C-146.88615784 43.58721773 -136.4534751 37.21234269 -125.25 31.375 C-123.98030503 30.69431573 -122.71076732 30.01333799 -121.44140625 29.33203125 C-99.48545076 17.75770475 -75.89665618 9.6096216 -51.625 4.625 C-50.66078125 4.42608154 -49.6965625 4.22716309 -48.703125 4.0222168 C-32.53013002 0.88061252 -16.44615275 -0.03866482 0 0 Z M-155.25 76.375 C-156.34167322 77.28478456 -157.43419011 78.19355729 -158.52734375 79.1015625 C-170.26385167 88.91957181 -180.81776892 99.29571295 -190.25 111.375 C-191.02730469 112.33535156 -191.80460937 113.29570312 -192.60546875 114.28515625 C-218.0182913 146.24309367 -234.99098628 185.02677914 -241.25 225.375 C-241.42732666 226.51396729 -241.60465332 227.65293457 -241.78735352 228.82641602 C-243.32179753 239.71366164 -243.60872242 250.4528992 -243.5625 261.4375 C-243.56067719 262.33852448 -243.55885437 263.23954895 -243.55697632 264.1678772 C-243.50961075 278.09721039 -242.93378652 291.67078299 -240.25 305.375 C-240.08371094 306.25994141 -239.91742188 307.14488281 -239.74609375 308.05664062 C-233.92565803 338.30134922 -222.55231667 367.2697763 -206.25 393.375 C-205.88132812 393.96877441 -205.51265625 394.56254883 -205.1328125 395.17431641 C-198.5646964 405.65305426 -190.67673632 414.9388642 -182.3515625 424.05078125 C-180.51615163 426.08065015 -178.75618556 428.1520936 -177 430.25 C-159.29165457 450.42457619 -135.74171295 465.78663817 -112.25 478.375 C-111.3216333 478.88111816 -111.3216333 478.88111816 -110.37451172 479.39746094 C-75.78558188 498.14113162 -36.52384333 506.61947765 2.625 506.5 C4.51412109 506.50580078 4.51412109 506.50580078 6.44140625 506.51171875 C19.44160798 506.4983578 32.03452529 505.61730141 44.8125 503.1875 C45.97571777 502.96827881 47.13893555 502.74905762 48.33740234 502.52319336 C107.19730894 491.04708364 162.88426617 459.06176657 198.75 410.375 C199.17087891 409.81490234 199.59175781 409.25480469 200.02539062 408.67773438 C210.60701814 394.58515211 219.32492479 379.34394629 226.75 363.375 C227.08241699 362.66182617 227.41483398 361.94865234 227.75732422 361.21386719 C241.34151786 331.62646601 247.93822809 299.5462104 247.93530273 267.09228516 C247.9374725 264.4090141 247.9556303 261.72616651 247.97460938 259.04296875 C248.02566699 243.79849814 246.90908479 228.89144572 243.5 214 C243.28239014 213.03505615 243.06478027 212.0701123 242.84057617 211.07592773 C232.73334793 167.33769528 211.86772875 127.37116739 180.48486328 95.15673828 C178.80001729 93.42636873 177.13203061 91.68095791 175.46484375 89.93359375 C168.61682332 82.83655439 161.38895329 76.54580819 153.4765625 70.66162109 C151.82614716 69.43174428 150.19418228 68.18033894 148.5625 66.92578125 C70.68887815 8.1297757 -44.63569095 4.8865839 -155.25 76.375 Z " fill="#FC3600" transform="translate(509.25,93.625)"/>
<path d="M0 0 C2.82583068 0.00316497 5.65061577 -0.02040511 8.47631836 -0.0456543 C23.29449575 -0.09706069 39.36754 0.02340412 51.08374023 10.31567383 C62.78875909 22.92930145 61.73537015 42.73843861 61.65698242 58.82299805 C61.64622458 61.44448814 61.65696402 64.06529758 61.66967773 66.68676758 C61.6966576 97.81565836 61.6966576 97.81565836 52.27124023 108.12817383 C41.3289381 118.06294065 26.89034991 119.46224686 12.76733398 119.48364258 C11.97456558 119.48697098 11.18179718 119.49029938 10.36500549 119.49372864 C8.6969561 119.49875495 7.0288968 119.50113831 5.36083984 119.50097656 C2.86399881 119.50314752 0.36761193 119.52130673 -2.12915039 119.5402832 C-19.00150262 119.60253009 -34.9920495 119.36685311 -48.88891602 108.53442383 C-58.02241509 99.38153304 -58.74759081 84.79319691 -58.80688477 72.56958008 C-58.81258484 71.64080551 -58.81828491 70.71203094 -58.82415771 69.75511169 C-58.83357057 67.79264449 -58.84012686 65.83016175 -58.84399414 63.86767578 C-58.85362834 60.91840634 -58.88465781 57.96985615 -58.91625977 55.02075195 C-59.09693219 22.60729905 -59.09693219 22.60729905 -49.69750977 12.20629883 C-36.21039521 -0.80591733 -17.59210589 -0.04111372 0 0 Z " fill="#FD3500" transform="translate(642.603759765625,669.684326171875)"/>
<path d="M0 0 C0.76171509 -0.00524185 1.52343018 -0.0104837 2.30822754 -0.0158844 C3.91527083 -0.02229471 5.52236109 -0.02098039 7.12939453 -0.01245117 C9.58581102 -0.00393378 12.03990647 -0.03272389 14.49609375 -0.06445312 C16.05989514 -0.06606515 17.62370063 -0.06548759 19.1875 -0.0625 C20.28608337 -0.07935097 20.28608337 -0.07935097 21.40686035 -0.09654236 C24.7089663 -0.05148594 26.71888951 0.16466784 29.43237305 2.11132812 C31.28639385 4.7028705 32.43353149 7.11181413 33.58203125 10.0859375 C34.25842651 11.80973633 34.25842651 11.80973633 34.94848633 13.56835938 C35.18483795 14.18493408 35.42118958 14.80150879 35.66470337 15.43676758 C36.69220522 18.11700863 37.74271238 20.78806872 38.79130554 23.46011353 C39.35332906 24.89320817 39.91410385 26.32679307 40.47370911 27.76083374 C43.3984602 35.24861474 46.43232476 42.69085108 49.46902466 50.13375854 C52.35976384 57.22727537 55.22692319 64.33038694 58.09375 71.43359375 C58.43931946 72.28949097 58.78488892 73.14538818 59.14093018 74.02722168 C61.25845385 79.2757722 63.36591099 84.52820618 65.46127319 89.78564453 C66.12672633 91.45208932 66.79482925 93.1174787 67.46572876 94.78173828 C68.39864163 97.09770074 69.32158983 99.41740095 70.2421875 101.73828125 C70.51748795 102.41583466 70.79278839 103.09338806 71.07643127 103.79147339 C72.80394232 108.18732679 73.40170106 111.58925119 74.09375 116.43359375 C65.18375 116.43359375 56.27375 116.43359375 47.09375 116.43359375 C45.629375 113.09234375 44.165 109.75109375 42.65625 106.30859375 C42.19549072 105.26687012 41.73473145 104.22514648 41.26000977 103.15185547 C40.89705811 102.31412598 40.53410645 101.47639648 40.16015625 100.61328125 C39.6024353 99.34073486 39.6024353 99.34073486 39.03344727 98.04248047 C38.09375 95.43359375 38.09375 95.43359375 37.09375 89.43359375 C9.86875 89.92859375 9.86875 89.92859375 -17.90625 90.43359375 C-21.20625 98.35359375 -24.50625 106.27359375 -27.90625 114.43359375 C-29.90625 116.43359375 -29.90625 116.43359375 -32.52001953 116.66064453 C-33.59880371 116.6501709 -34.67758789 116.63969727 -35.7890625 116.62890625 C-36.95566406 116.62246094 -38.12226563 116.61601563 -39.32421875 116.609375 C-40.54753906 116.59261719 -41.77085937 116.57585937 -43.03125 116.55859375 C-44.26230469 116.54957031 -45.49335938 116.54054688 -46.76171875 116.53125 C-49.81008815 116.50761923 -52.85807382 116.47467429 -55.90625 116.43359375 C-56.23625 115.77359375 -56.56625 115.11359375 -56.90625 114.43359375 C-56.13463596 112.12510949 -55.29395834 109.9322962 -54.35546875 107.69140625 C-54.07019318 106.99297104 -53.7849176 106.29453583 -53.49099731 105.57493591 C-52.53245764 103.23312582 -51.56301704 100.895982 -50.59375 98.55859375 C-49.91485768 96.90517472 -49.23673141 95.25144096 -48.55932617 93.59741211 C-47.10843144 90.05819341 -45.6531014 86.52084506 -44.19433594 82.98486328 C-40.7350192 74.59754719 -37.30256396 66.19923945 -33.86764526 57.8019104 C-32.72120754 55.00209552 -31.571965 52.20344601 -30.42211914 49.4050293 C-26.96683771 40.98699721 -23.54107969 32.56119895 -20.23828125 24.08203125 C-19.9595668 23.37000046 -19.68085236 22.65796967 -19.39369202 21.92436218 C-18.11725932 18.66335312 -16.85152997 15.39918745 -15.60864258 12.12524414 C-15.17318115 11.00883545 -14.73771973 9.89242676 -14.2890625 8.7421875 C-13.92184082 7.78111084 -13.55461914 6.82003418 -13.17626953 5.82983398 C-10.12720586 0.07693896 -6.05490319 -0.0242699 0 0 Z " fill="#FC3500" transform="translate(374.90625,671.56640625)"/>
<path d="M0 0 C1.084021 0.00523682 2.16804199 0.01047363 3.28491211 0.01586914 C4.33815674 0.0183667 5.39140137 0.02086426 6.4765625 0.0234375 C7.82484131 0.0325415 9.17312012 0.04164551 10.56225586 0.05102539 C14.83163086 0.07165039 19.10100586 0.09227539 23.49975586 0.11352539 C23.49975586 15.62352539 23.49975586 31.13352539 23.49975586 47.11352539 C42.30975586 47.11352539 61.11975586 47.11352539 80.49975586 47.11352539 C80.49975586 31.60352539 80.49975586 16.09352539 80.49975586 0.11352539 C89.07975586 0.11352539 97.65975586 0.11352539 106.49975586 0.11352539 C106.49975586 38.72352539 106.49975586 77.33352539 106.49975586 117.11352539 C97.91975586 117.11352539 89.33975586 117.11352539 80.49975586 117.11352539 C80.49975586 101.27352539 80.49975586 85.43352539 80.49975586 69.11352539 C61.68975586 69.11352539 42.87975586 69.11352539 23.49975586 69.11352539 C23.49975586 84.95352539 23.49975586 100.79352539 23.49975586 117.11352539 C19.23038086 117.13415039 14.96100586 117.15477539 10.56225586 117.17602539 C8.53983765 117.1896814 8.53983765 117.1896814 6.4765625 117.20361328 C4.89669556 117.20735962 4.89669556 117.20735962 3.28491211 117.21118164 C1.65888062 117.21903687 1.65888062 117.21903687 0 117.22705078 C-2.50024414 117.11352539 -2.50024414 117.11352539 -3.50024414 116.11352539 C-3.59812678 114.62301271 -3.62656196 113.12787834 -3.62722778 111.63415527 C-3.63004761 110.66659805 -3.63286743 109.69904083 -3.63577271 108.7021637 C-3.63374847 107.63199509 -3.63172424 106.56182648 -3.62963867 105.45922852 C-3.63139099 104.33902817 -3.63314331 103.21882782 -3.63494873 102.06468201 C-3.63936991 98.3413643 -3.63642832 94.61809363 -3.63305664 90.89477539 C-3.6337296 88.32027172 -3.63469956 85.7457681 -3.63595581 83.17126465 C-3.63743315 77.76740864 -3.63537168 72.36357049 -3.63061523 66.9597168 C-3.62517264 60.70391067 -3.62693531 54.44813713 -3.63244164 48.19233179 C-3.63751848 42.18501489 -3.63699122 36.17771399 -3.63405991 30.1703949 C-3.63339037 27.60900366 -3.63421998 25.04761159 -3.63653946 22.48622131 C-3.63906441 18.91339886 -3.6352276 15.34063996 -3.62963867 11.76782227 C-3.6316629 10.69765366 -3.63368713 9.62748505 -3.63577271 8.52488708 C-3.63295288 7.55732986 -3.63013306 6.58977264 -3.62722778 5.59289551 C-3.62685076 4.74706657 -3.62647373 3.90123764 -3.62608528 3.02977753 C-3.43200116 0.07435212 -2.97215602 0.13495289 0 0 Z " fill="#FD3500" transform="translate(182.500244140625,670.886474609375)"/>
<path d="M0 0 C0.66 0 1.32 0 2 0 C2 85.47 2 170.94 2 259 C-5.87300119 252.25171327 -5.87300119 252.25171327 -9.33959961 248.75805664 C-10.11407944 247.98027359 -10.88855927 247.20249054 -11.68650818 246.40113831 C-12.50023392 245.57911423 -13.31395966 244.75709015 -14.15234375 243.91015625 C-15.01130753 243.04740585 -15.8702713 242.18465546 -16.75526428 241.29576111 C-20.40438107 237.63040457 -24.04751025 233.95911792 -27.69116211 230.28833008 C-30.36363404 227.59768619 -33.03916832 224.91011389 -35.71484375 222.22265625 C-36.93239601 220.99265648 -36.93239601 220.99265648 -38.17454529 219.73780823 C-42.43103509 215.46323772 -46.753103 211.37172959 -51.38111877 207.49998474 C-53 206 -53 206 -55 203 C-54.28714844 202.50371094 -53.57429687 202.00742187 -52.83984375 201.49609375 C-30.9582622 185.97577951 -19.5188393 163.40274982 -14.87768555 137.21142578 C-10.609873 108.86518143 -15.98233319 79.98056393 -32.859375 56.40234375 C-33.99341608 54.9508681 -35.14529902 53.51292266 -36.32421875 52.09765625 C-38.39310652 49.50792961 -40.18874077 46.77410728 -42 44 C-41.40050537 43.40574219 -40.80101074 42.81148438 -40.18334961 42.19921875 C-37.92425473 39.95733893 -35.66755127 37.71308469 -33.41235352 35.46728516 C-32.44257727 34.50248541 -31.4718993 33.53859105 -30.50024414 32.57568359 C-25.34962538 27.47022239 -20.32337821 22.33685903 -15.60668945 16.82714844 C-12.92653479 13.7792412 -10.02697824 10.95980282 -7.125 8.125 C-3.08222494 4.43209363 -3.08222494 4.43209363 0 0 Z " fill="#020000" transform="translate(643,228)"/>
<path d="M0 0 C4.24951208 -0.29939657 8.49328711 -0.51550918 12.75024414 -0.65917969 C14.19338918 -0.71910266 15.63581839 -0.80069404 17.07641602 -0.90527344 C21.95859993 -1.25049545 26.24339166 -1.26845018 31 0 C34.98016322 3.49352332 37.43596561 7.40553535 40 12 C41.13813203 13.77579284 42.28261771 15.54755478 43.4375 17.3125 C44.25734375 18.63507812 44.25734375 18.63507812 45.09375 19.984375 C46.58052331 22.33640163 48.09806181 24.64885518 49.65625 26.953125 C50.34569702 27.97345825 50.34569702 27.97345825 51.04907227 29.0144043 C51.96265521 30.36204757 52.87972152 31.70733708 53.80053711 33.05004883 C57 37.78063446 57 37.78063446 57 40 C57.66 40 58.32 40 59 40 C59.27835693 39.41605469 59.55671387 38.83210937 59.84350586 38.23046875 C60.93804928 36.11948106 62.13209382 34.25168734 63.50390625 32.3125 C63.99294434 31.61946777 64.48198242 30.92643555 64.98583984 30.21240234 C65.76628662 29.11726318 65.76628662 29.11726318 66.5625 28 C67.0982666 27.24541504 67.6340332 26.49083008 68.18603516 25.71337891 C72.68494573 19.39881262 77.20523119 13.09444973 82 7 C82.35239746 6.3814917 82.70479492 5.7629834 83.06787109 5.12573242 C84.55300103 2.84625073 85.71664119 1.50578824 88 0 C92.96808099 -0.86480567 97.85937426 -0.66104603 102.875 -0.4375 C104.24471215 -0.4023501 105.61451087 -0.37041748 106.984375 -0.34179688 C110.32512834 -0.25945436 113.66145156 -0.1444778 117 0 C115.80110665 3.28429234 114.55740756 5.85273701 112.3125 8.53125 C111.78406494 9.16981934 111.25562988 9.80838867 110.71118164 10.46630859 C110.1464917 11.13742676 109.58180176 11.80854492 109 12.5 C107.80987714 13.93901285 106.62108813 15.37912982 105.43359375 16.8203125 C104.84690918 17.5309082 104.26022461 18.24150391 103.65576172 18.97363281 C100.5739775 22.74520595 97.6359662 26.62261988 94.68359375 30.49609375 C92.61175956 33.21193039 90.51493201 35.90727089 88.41015625 38.59765625 C87.78423584 39.3983252 87.15831543 40.19899414 86.51342773 41.02392578 C85.28406324 42.59516009 84.05318339 44.16521033 82.82055664 45.73388672 C79.70152653 49.72514667 76.74119992 53.7396622 74 58 C75.03833984 59.27617188 75.03833984 59.27617188 76.09765625 60.578125 C83.99637509 70.33972335 91.5823056 80.31481017 99.06689453 90.39648438 C100.37596298 92.15954398 101.68689187 93.92122348 102.99951172 95.68164062 C104.9407375 98.28513345 106.87738889 100.89196017 108.8125 103.5 C109.40530762 104.2950293 109.99811523 105.09005859 110.60888672 105.90917969 C111.15689941 106.65071289 111.70491211 107.39224609 112.26953125 108.15625 C112.75010986 108.80400391 113.23068848 109.45175781 113.72583008 110.11914062 C115.00980671 112.01447612 116.02501736 113.9312114 117 116 C114.38967755 118.61032245 107.34847229 117.27439594 103.80908203 117.29516602 C101.77176649 117.31231676 99.73610069 117.35617502 97.69921875 117.40039062 C96.41144531 117.40876953 95.12367188 117.41714844 93.796875 117.42578125 C92.02328613 117.44765503 92.02328613 117.44765503 90.21386719 117.4699707 C85.58017394 116.79237579 83.3252145 114.62721426 80.42944336 111.0715332 C79.98737549 110.40468506 79.54530762 109.73783691 79.08984375 109.05078125 C78.32546997 107.91346558 78.32546997 107.91346558 77.5456543 106.75317383 C77.01496338 105.94775146 76.48427246 105.1423291 75.9375 104.3125 C74.79805282 102.61379269 73.65739878 100.91589438 72.515625 99.21875 C71.93748047 98.35636719 71.35933594 97.49398437 70.76367188 96.60546875 C67.9623901 92.46714107 65.07878889 88.38823539 62.1875 84.3125 C61.66599365 83.57620361 61.1444873 82.83990723 60.60717773 82.08129883 C59.40602905 80.38665021 58.2032194 78.69317902 57 77 C52.82641301 80.90090254 49.65823409 85.10812332 46.4375 89.8125 C42.18408087 95.93273475 37.85017529 101.97720924 33.375 107.9375 C32.86638428 108.61723877 32.35776855 109.29697754 31.83374023 109.99731445 C29.98253793 112.45435333 28.1782303 114.8217697 26 117 C23.11083984 117.22705078 23.11083984 117.22705078 19.4609375 117.1953125 C17.50800781 117.18564453 17.50800781 117.18564453 15.515625 117.17578125 C14.13541405 117.15906929 12.75520571 117.14213939 11.375 117.125 C9.98698548 117.11497006 8.59896411 117.10584423 7.2109375 117.09765625 C3.80711974 117.07401863 0.40364494 117.04106867 -3 117 C-2.39409165 113.7486967 -1.31884707 111.80652395 0.73828125 109.234375 C1.30498535 108.51749512 1.87168945 107.80061523 2.45556641 107.06201172 C3.06835449 106.29904785 3.68114258 105.53608398 4.3125 104.75 C5.59880756 103.12330557 6.88394334 101.49568394 8.16796875 99.8671875 C8.81427246 99.04959961 9.46057617 98.23201172 10.12646484 97.38964844 C12.84437437 93.92302107 15.49181064 90.40619819 18.125 86.875 C18.60557861 86.23095215 19.08615723 85.5869043 19.58129883 84.92333984 C20.5535604 83.61971798 21.52548401 82.31584397 22.49707031 81.01171875 C24.08318592 78.88865302 25.67733499 76.77181648 27.2734375 74.65625 C27.81339355 73.93969238 28.35334961 73.22313477 28.90966797 72.48486328 C29.9361904 71.12299548 30.96378263 69.76193307 31.99267578 68.40185547 C34.79467464 64.67843937 37.4539049 60.90321182 40 57 C39.63874023 56.51345947 39.27748047 56.02691895 38.90527344 55.52563477 C31.99908196 46.2144919 25.1455154 36.87512809 18.49584961 27.37866211 C15.8294479 23.57545364 13.13466047 19.79635603 10.3984375 16.04296875 C9.50137085 14.81139038 9.50137085 14.81139038 8.58618164 13.55493164 C7.42717175 11.96709607 6.26502908 10.3815412 5.09936523 8.79858398 C4.57802002 8.08387939 4.0566748 7.3691748 3.51953125 6.6328125 C3.05651611 6.00262207 2.59350098 5.37243164 2.11645508 4.72314453 C1 3 1 3 0 0 Z " fill="#FC3500" transform="translate(726,671)"/>
<path d="M0 0 C4.36560043 3.74194322 8.46890138 7.33204521 12.5 11.375 C13.3765625 12.24898437 14.253125 13.12296875 15.15625 14.0234375 C17.26778457 16.18739792 19.25307486 18.43298944 21.22265625 20.7265625 C25.55599743 25.72274746 30.23996259 30.34890212 34.9375 35 C35.81212891 35.87011719 36.68675781 36.74023438 37.58789062 37.63671875 C39.72297449 39.76013549 41.86037205 41.88116378 44 44 C42.53267047 48.05915458 40.63036181 50.58275455 37.76953125 53.8125 C17.52569484 78.83799313 11.37180617 112.11812801 14.22705078 143.49511719 C17.37013498 169.36042738 27.81957503 193.46386664 45 213 C43.64296597 216.03579807 42.1245168 218.11711042 39.76293945 220.44824219 C38.77599846 221.43011505 38.77599846 221.43011505 37.76911926 222.43182373 C37.05769272 223.12979065 36.34626617 223.82775757 35.61328125 224.546875 C34.87804733 225.27690735 34.14281342 226.0069397 33.38529968 226.75909424 C31.0323975 229.09419488 28.67294328 231.42252447 26.3125 233.75 C23.97073528 236.06399867 21.63049486 238.3794862 19.29325867 240.69805908 C17.84020192 242.13902375 16.38448192 243.57730974 14.9256134 245.01239014 C10.89735052 249.00160388 7.09498829 253.09810354 3.44352722 257.43634033 C2 259 2 259 0 260 C0 174.2 0 88.4 0 0 Z " fill="#020000" transform="translate(378,228)"/>
<path d="M0 0 C1.28970703 -0.01224609 2.57941406 -0.02449219 3.90820312 -0.03710938 C20.239535 -0.06214463 20.239535 -0.06214463 27.1875 4.3125 C37.93556327 16.08418834 34.2776665 39.43241854 33.8125 54.1875 C33.31770803 62.37059791 32.60778343 69.28059058 26.6875 75.375 C19.04219965 80.19486326 9.59488645 79.52312967 0.875 79.5 C-0.33607422 79.51611328 -1.54714844 79.53222656 -2.79492188 79.54882812 C-11.25628814 79.55340927 -19.28971401 79.19204336 -26.1875 73.875 C-31.37932374 66.89848684 -31.34289086 58.14638782 -31.35546875 49.76171875 C-31.35879715 48.97408646 -31.36212555 48.18645416 -31.36555481 47.37495422 C-31.37059083 45.71685363 -31.37296417 44.058743 -31.37280273 42.40063477 C-31.37498472 39.89256703 -31.39316351 37.38494303 -31.41210938 34.87695312 C-31.49239062 12.34440287 -31.49239062 12.34440287 -25.1875 5.1875 C-17.19757623 -0.60472912 -9.50294156 0.00467895 0 0 Z " fill="#010000" transform="translate(643.1875,689.8125)"/>
<path d="M0 0 C8.58 0 17.16 0 26 0 C26 31.68 26 63.36 26 96 C46.68836743 95.96038734 46.68836743 95.96038734 67.37670898 95.90991211 C69.95817016 95.90699324 72.53963178 95.90444462 75.12109375 95.90234375 C75.79608414 95.89973038 76.47107452 95.897117 77.16651917 95.89442444 C79.14542498 95.88714339 81.12435228 95.8866616 83.10327148 95.88647461 C84.22023911 95.884254 85.33720673 95.88203339 86.48802185 95.87974548 C89 96 89 96 90 97 C90.08669432 98.4887186 90.10703494 99.981445 90.09765625 101.47265625 C90.09282227 102.82133789 90.09282227 102.82133789 90.08789062 104.19726562 C90.07532227 105.61555664 90.07532227 105.61555664 90.0625 107.0625 C90.05798828 108.01189453 90.05347656 108.96128906 90.04882812 109.93945312 C90.0370011 112.29303065 90.02052025 114.64648477 90 117 C78.28273212 117.02312215 66.56546963 117.04091443 54.84818363 117.05181217 C49.40797688 117.05704128 43.96778569 117.06413943 38.52758789 117.07543945 C33.28214298 117.08626735 28.03671308 117.09227662 22.79125786 117.09487724 C20.78529054 117.09673167 18.77932408 117.10035262 16.77336311 117.10573006 C13.97397176 117.11293919 11.17464321 117.113991 8.37524414 117.11352539 C7.53727295 117.11712067 6.69930176 117.12071594 5.8359375 117.12442017 C0.11405216 117.11405216 0.11405216 117.11405216 -1 116 C-1.09788264 114.50948732 -1.12631782 113.01435295 -1.12698364 111.52062988 C-1.12980347 110.55307266 -1.13262329 109.58551544 -1.13552856 108.58863831 C-1.13350433 107.5184697 -1.1314801 106.44830109 -1.12939453 105.34570312 C-1.13114685 104.22550278 -1.13289917 103.10530243 -1.13470459 101.95115662 C-1.13912577 98.22783891 -1.13618417 94.50456824 -1.1328125 90.78125 C-1.13348546 88.20674633 -1.13445542 85.63224271 -1.13571167 83.05773926 C-1.137189 77.65388325 -1.13512754 72.2500451 -1.13037109 66.84619141 C-1.1249285 60.59038528 -1.12669117 54.33461174 -1.1321975 48.0788064 C-1.13727434 42.0714895 -1.13674708 36.0641886 -1.13381577 30.05686951 C-1.13314623 27.49547827 -1.13397584 24.9340862 -1.13629532 22.37269592 C-1.13882027 18.79987347 -1.13498346 15.22711457 -1.12939453 11.65429688 C-1.13141876 10.58412827 -1.13344299 9.51395966 -1.13552856 8.41136169 C-1.13270874 7.44380447 -1.12988892 6.47624725 -1.12698364 5.47937012 C-1.12660662 4.63354118 -1.12622959 3.78771225 -1.12584114 2.91625214 C-1 1 -1 1 0 0 Z " fill="#FE3500" transform="translate(476,671)"/>
<path d="M0 0 C2.2875593 3.43133895 3.65326644 6.99026904 5.1171875 10.81640625 C5.41561554 11.58750229 5.71404358 12.35859833 6.02151489 13.15306091 C6.97609707 15.621569 7.92569878 18.09195683 8.875 20.5625 C9.8162101 23.00245077 10.75844262 25.44200427 11.70098877 27.88143921 C12.30760521 29.45225291 12.91337096 31.02339542 13.51824951 32.59487915 C15.41233445 37.50958978 17.35391743 42.40140711 19.37548828 47.26538086 C20 49 20 49 20 51 C7.13 51 -5.74 51 -19 51 C-18.329081 47.64540499 -17.75229778 45.05715943 -16.55712891 41.96337891 C-16.26657623 41.20554108 -15.97602356 40.44770325 -15.67666626 39.66690063 C-15.36313202 38.86158905 -15.04959778 38.05627747 -14.7265625 37.2265625 C-14.40215179 36.3845932 -14.07774109 35.5426239 -13.74349976 34.67514038 C-13.05776957 32.89760871 -12.37011475 31.12081848 -11.68066406 29.34472656 C-10.63193064 26.64285554 -9.58887548 23.93884883 -8.546875 21.234375 C-7.87793655 19.50247575 -7.20867615 17.77070081 -6.5390625 16.0390625 C-6.22957672 15.23779938 -5.92009094 14.43653625 -5.60122681 13.61099243 C-3.82246849 9.0322753 -1.96209287 4.50329906 0 0 Z " fill="#040000" transform="translate(384,690)"/>
<path d="M0 0 C0.33 0 0.66 0 1 0 C1.33 37.62 1.66 75.24 2 114 C31.04 114 60.08 114 90 114 C90 108.06 90 102.12 90 96 C90.33 96 90.66 96 91 96 C91 102.6 91 109.2 91 116 C79.28272869 116.02254989 67.56547169 116.04091443 55.84818363 116.05181217 C50.40797688 116.05704128 44.96778569 116.06413943 39.52758789 116.07543945 C34.28214298 116.08626735 29.03671308 116.09227662 23.79125786 116.09487724 C21.78529054 116.09673167 19.77932408 116.10035262 17.77336311 116.10573006 C14.97397176 116.11293919 12.17464321 116.113991 9.37524414 116.11352539 C8.53727295 116.11712067 7.69930176 116.12071594 6.8359375 116.12442017 C1.11405216 116.11405216 1.11405216 116.11405216 0 115 C-0.09571971 113.50716202 -0.12188227 112.00980345 -0.12025452 110.51390076 C-0.12162918 109.54489838 -0.12300385 108.575896 -0.12442017 107.57752991 C-0.12082489 106.50579025 -0.11722961 105.4340506 -0.11352539 104.32983398 C-0.11367142 103.20802734 -0.11381744 102.0862207 -0.1139679 100.93041992 C-0.1132682 97.20229189 -0.10547315 93.47421311 -0.09765625 89.74609375 C-0.09579227 87.16919482 -0.09436827 84.59229553 -0.09336853 82.01539612 C-0.08993342 75.91324885 -0.0820426 69.81112206 -0.07201904 63.70898253 C-0.06085689 56.7635075 -0.0553472 49.81803165 -0.05032361 42.87254989 C-0.03985996 28.58169034 -0.02226115 14.2908458 0 0 Z " fill="#D83100" transform="translate(475,672)"/>
<path d="M0 0 C0 7.3048809 -11.12404945 15.1696448 -16.07080078 20.13452148 C-19.70419039 23.76613107 -23.3483592 27.38674779 -27 31 C-27 27.53898271 -26.66662683 27.27300037 -24.39453125 24.8828125 C-23.82879395 24.28154541 -23.26305664 23.68027832 -22.68017578 23.06079102 C-22.06384277 22.42197998 -21.44750977 21.78316895 -20.8125 21.125 C-20.18843262 20.46749756 -19.56436523 19.80999512 -18.92138672 19.13256836 C-12.72955364 12.64087922 -6.3907754 6.29523225 0 0 Z " fill="#E83700" transform="translate(614,227)"/>
<path d="M0 0 C0.33 0.99 0.66 1.98 1 3 C0.113125 3.5775 -0.77375 4.155 -1.6875 4.75 C-4.59042244 6.68068476 -7.30768649 8.78280064 -10 11 C-10 10.01 -10 9.02 -10 8 C-7.8125 5.95703125 -7.8125 5.95703125 -5 3.8125 C-4.071875 3.09707031 -3.14375 2.38164063 -2.1875 1.64453125 C-1.1046875 0.83048828 -1.1046875 0.83048828 0 0 Z " fill="#ED3900" transform="translate(664,547)"/>
<path d="M0 0 C0.66 0.33 1.32 0.66 2 1 C0.08864614 4.53600465 -1.62642766 6.78972846 -5 9 C-4.42647107 5.12867972 -2.51295648 2.91827204 0 0 Z " fill="#ED3700" transform="translate(766,729)"/>
<path d="M0 0 C0 3 0 3 -2.5 5.6875 C-3.325 6.450625 -4.15 7.21375 -5 8 C-5.66 7.67 -6.32 7.34 -7 7 C-4.66666667 4.66666667 -2.33333333 2.33333333 0 0 Z " fill="#F03B00" transform="translate(470,305)"/>
</svg>
